<?xml version="1.0" encoding="UTF-8" standalone="no"?>
<!-- Created with Inkscape (http://www.inkscape.org/) -->

<svg
   version="1.1"
   id="svg2"
   width="5164"
   height="5164"
   viewBox="0 0 5164 5164"
   sodipodi:docname="vecteezy_beaker-vector-icon_14716658.eps"
   xmlns:inkscape="http://www.inkscape.org/namespaces/inkscape"
   xmlns:sodipodi="http://sodipodi.sourceforge.net/DTD/sodipodi-0.dtd"
   xmlns="http://www.w3.org/2000/svg"
   xmlns:svg="http://www.w3.org/2000/svg">
  <defs
     id="defs6" />
  <sodipodi:namedview
     id="namedview4"
     pagecolor="#ffffff"
     bordercolor="#000000"
     borderopacity="0.25"
     inkscape:showpageshadow="2"
     inkscape:pageopacity="0.0"
     inkscape:pagecheckerboard="0"
     inkscape:deskcolor="#d1d1d1" />
  <g
     id="g8"
     inkscape:groupmode="layer"
     inkscape:label="ink_ext_XXXXXX"
     transform="matrix(1.3333333,0,0,-1.3333333,0,5164)">
    <g
       id="g10"
       transform="scale(0.1)">
      <path
         d="m 12080,4842 c -1884,17 -3357,1492 -3357,3357 0,590 155,1169 447,1676 l 7244,12547 v 9711 c 0,167 135,303 303,303 168,0 303,-135 303,-303 v -9792 c 0,-53 -14,-105 -40,-151 L 9694,9574 c -240,-415 -366,-890 -366,-1374 0,-1529 1210,-2738 2755,-2752 h 14573 c 1,0 3,0 4,0 724,0 1436,301 1956,828 518,524 797,1208 786,1924 0,485 -126,958 -366,1374 l -7285,12618 c -27,46 -41,98 -41,151 v 9792 c 0,167 135,303 303,303 168,0 303,-135 303,-303 V 22424 L 29560,9877 c 293,-508 448,-1087 447,-1673 13,-875 -328,-1713 -961,-2353 -632,-640 -1502,-1007 -2386,-1007 -2,0 -3,0 -5,0 l -14575,-2 v 0"
         style="fill:#fff;fill-opacity:1;fill-rule:evenodd;stroke:none"
         id="path12" />
      <path
         d="M 26883,13361 H 11706 c -167,0 -303,135 -303,303 0,167 135,303 303,303 h 15176 c 167,0 303,-135 303,-303 0,-167 -135,-303 -302,-303"
         style="fill:#fff;fill-opacity:1;fill-rule:evenodd;stroke:none"
         id="path14" />
      <path
         d="m 22065,9132 c -584,0 -1059,-475 -1059,-1059 0,-584 475,-1059 1059,-1059 584,0 1059,475 1059,1059 0,585 -475,1059 -1059,1059 z m 0,-2722 c -917,0 -1664,746 -1664,1664 0,917 746,1664 1664,1664 917,0 1664,-746 1664,-1664 0,-917 -747,-1664 -1664,-1664"
         style="fill:#fff;fill-opacity:1;fill-rule:evenodd;stroke:none"
         id="path16" />
      <path
         d="m 24068,11879 c -267,0 -484,-217 -484,-484 0,-267 217,-484 484,-484 267,0 484,217 484,484 0,267 -217,484 -484,484 z m 0,-1573 c -601,0 -1089,489 -1089,1089 0,601 488,1089 1089,1089 601,0 1089,-488 1089,-1089 0,-601 -489,-1089 -1089,-1089"
         style="fill:#fff;fill-opacity:1;fill-rule:evenodd;stroke:none"
         id="path18" />
      <path
         d="m 18599,11939 c -312,0 -565,-254 -565,-565 0,-312 254,-565 565,-565 312,0 565,254 565,565 0,311 -253,565 -565,565 z m 0,-1736 c -645,0 -1170,525 -1170,1170 0,645 525,1170 1170,1170 645,0 1170,-525 1170,-1170 0,-645 -525,-1170 -1170,-1170"
         style="fill:#fff;fill-opacity:1;fill-rule:evenodd;stroke:none"
         id="path20" />
      <path
         d="m 29403,16296 h -2480 c -167,0 -303,135 -303,303 0,167 135,303 303,303 h 2480 c 167,0 303,-135 303,-303 -1,-167 -136,-303 -303,-303"
         style="fill:#fff;fill-opacity:1;fill-rule:evenodd;stroke:none"
         id="path22" />
      <path
         d="m 28077,18955 h -2480 c -167,0 -303,135 -303,303 0,168 135,303 303,303 h 2480 c 167,0 303,-135 303,-303 0,-167 -136,-303 -303,-303"
         style="fill:#fff;fill-opacity:1;fill-rule:evenodd;stroke:none"
         id="path24" />
      <path
         d="m 26752,21615 h -2480 c -167,0 -303,135 -303,303 0,168 135,303 303,303 h 2480 c 167,0 303,-135 303,-303 0,-168 -136,-303 -303,-303"
         style="fill:#fff;fill-opacity:1;fill-rule:evenodd;stroke:none"
         id="path26" />
      <path
         d="m 26752,23974 h -2480 c -167,0 -303,135 -303,303 0,168 135,303 303,303 h 2480 c 167,0 303,-135 303,-303 0,-168 -136,-303 -303,-303"
         style="fill:#fff;fill-opacity:1;fill-rule:evenodd;stroke:none"
         id="path28" />
      <path
         d="m 26752,26334 h -2480 c -167,0 -303,135 -303,303 0,168 135,303 303,303 h 2480 c 167,0 303,-135 303,-303 -1,-168 -136,-303 -303,-303"
         style="fill:#fff;fill-opacity:1;fill-rule:evenodd;stroke:none"
         id="path30" />
      <path
         d="m 26752,28694 h -2480 c -167,0 -303,135 -303,303 0,167 135,303 303,303 h 2480 c 167,0 303,-135 303,-303 -1,-168 -136,-303 -303,-303"
         style="fill:#fff;fill-opacity:1;fill-rule:evenodd;stroke:none"
         id="path32" />
      <path
         d="m 26752,31053 h -2480 c -167,0 -303,135 -303,303 0,167 135,303 303,303 h 2480 c 167,0 303,-135 303,-303 -1,-167 -136,-303 -303,-303"
         style="fill:#fff;fill-opacity:1;fill-rule:evenodd;stroke:none"
         id="path34" />
      <path
         d="m 16717,33283 c -6,0 -11,-6 -11,-11 v -823 c 0,-5 6,-11 11,-11 h 5295 c 6,0 11,6 11,11 v 823 c 0,6 -6,11 -11,11 1,0 -5295,0 -5295,0 z m 5296,-1451 h -5295 c -340,0 -616,276 -616,616 v 823 c 0,340 276,616 616,616 h 5295 c 340,0 616,-276 616,-616 v -823 c 0,-339 -276,-616 -616,-616"
         style="fill:#fff;fill-opacity:1;fill-rule:evenodd;stroke:none"
         id="path36" />
    </g>
  </g>
</svg>
