<?xml version="1.0" encoding="UTF-8" standalone="no"?>
<!-- Created with Inkscape (http://www.inkscape.org/) -->

<svg
   version="1.1"
   id="svg2"
   width="1600"
   height="1600"
   viewBox="0 0 1600 1600"
   sodipodi:docname="vector60-6783-01.eps"
   xmlns:inkscape="http://www.inkscape.org/namespaces/inkscape"
   xmlns:sodipodi="http://sodipodi.sourceforge.net/DTD/sodipodi-0.dtd"
   xmlns="http://www.w3.org/2000/svg"
   xmlns:svg="http://www.w3.org/2000/svg">
  <defs
     id="defs6" />
  <sodipodi:namedview
     id="namedview4"
     pagecolor="#ffffff"
     bordercolor="#000000"
     borderopacity="0.25"
     inkscape:showpageshadow="2"
     inkscape:pageopacity="0.0"
     inkscape:pagecheckerboard="0"
     inkscape:deskcolor="#d1d1d1" />
  <g
     id="g8"
     inkscape:groupmode="layer"
     inkscape:label="ink_ext_XXXXXX"
     transform="matrix(1.3333333,0,0,-1.3333333,0,1600)">
    <g
       id="g10"
       transform="scale(0.1)">
      <path
         d="m 6013.49,5719.35 c -928.37,0 -1680.96,745.78 -1680.96,1665.75 0,919.97 752.59,1665.75 1680.96,1665.75 928.37,0 1680.95,-745.78 1680.95,-1665.75 0,-919.97 -752.58,-1665.75 -1680.95,-1665.75 z M 6025,10320 c -1659.62,0 -3005,-1329.22 -3005,-2968.9 0,-549.37 151.2,-1063.77 414.49,-1505.1 l 2579,-4546 2602.1,4546.17 C 8878.86,6287.46 9030,6801.8 9030,7351.1 9030,8990.78 7684.62,10320 6025,10320"
         style="fill:#fff;fill-opacity:1;fill-rule:nonzero;stroke:none"
         id="path12" />
    </g>
  </g>
</svg>
