<?xml version="1.0" encoding="UTF-8" standalone="no"?>
<!-- Created with Inkscape (http://www.inkscape.org/) -->

<svg
   version="1.1"
   id="svg2"
   width="491.51999"
   height="284.67999"
   viewBox="0 0 491.51999 284.67999"
   sodipodi:docname="Education_(21).eps"
   xmlns:inkscape="http://www.inkscape.org/namespaces/inkscape"
   xmlns:sodipodi="http://sodipodi.sourceforge.net/DTD/sodipodi-0.dtd"
   xmlns="http://www.w3.org/2000/svg"
   xmlns:svg="http://www.w3.org/2000/svg">
  <defs
     id="defs6" />
  <sodipodi:namedview
     id="namedview4"
     pagecolor="#ffffff"
     bordercolor="#000000"
     borderopacity="0.25"
     inkscape:showpageshadow="2"
     inkscape:pageopacity="0.0"
     inkscape:pagecheckerboard="0"
     inkscape:deskcolor="#d1d1d1" />
  <g
     id="g8"
     inkscape:groupmode="layer"
     inkscape:label="ink_ext_XXXXXX"
     transform="matrix(1.3333333,0,0,-1.3333333,0,284.68)">
    <g
       id="g10"
       transform="scale(0.1)">
      <path
         d="m 247.387,1515.14 c 0,31.81 -25.785,57.59 -57.598,57.59 -31.809,0 -57.601,-25.78 -57.601,-57.59 V 730.488 c 0,-31.804 25.792,-57.597 57.601,-57.597 31.813,0 57.598,25.793 57.598,57.597 v 784.652"
         style="fill:#fff;fill-opacity:1;fill-rule:nonzero;stroke:none"
         id="path12" />
      <path
         d="m 1909.29,1634.3 c 312.24,0 596.09,-33.25 802.61,-87 228.41,-59.44 369.69,-151.05 369.69,-260.72 V 1099.65 791.348 604.426 c 0,-109.668 -141.28,-201.281 -369.69,-260.723 -206.52,-53.75 -490.37,-87.004 -802.61,-87.004 -312.22,0 -596.08,33.254 -802.6,87.004 -228.409,59.442 -369.686,151.055 -369.686,260.723 v 186.922 308.302 186.93 c 0,109.67 141.277,201.28 369.686,260.72 206.52,53.75 490.38,87 802.6,87 z m 773.81,-198.15 c -196.91,51.25 -470.41,82.95 -773.81,82.95 -303.39,0 -576.89,-31.7 -773.8,-82.95 C 960.465,1390.6 852.203,1337.14 852.203,1286.58 V 1099.65 791.348 604.426 c 0,-50.559 108.262,-104.024 283.287,-149.571 196.91,-51.25 470.41,-82.949 773.8,-82.949 303.4,0 576.9,31.699 773.81,82.949 175.03,45.547 283.29,99.012 283.29,149.571 v 186.922 308.302 186.93 c 0,50.56 -108.26,104.02 -283.29,149.57"
         style="fill:#fff;fill-opacity:1;fill-rule:nonzero;stroke:none"
         id="path14" />
      <path
         d="m 189.375,788.098 h 0.004 c 52.137,0 99.5,-21.289 133.789,-55.586 34.297,-34.289 55.586,-81.653 55.586,-133.789 V 189.375 c 0,-52.137 -21.289,-99.5039 -55.586,-133.7969 C 288.879,21.2891 241.516,0 189.379,0 h -0.004 C 137.242,0 89.8789,21.2891 55.5859,55.5781 21.293,89.8711 0,137.238 0,189.375 v 409.348 c 0,52.136 21.293,99.492 55.5859,133.789 34.293,34.297 81.6561,55.586 133.7891,55.586 z m 0.004,-115.196 h -0.004 c -20.336,0 -38.871,-8.371 -52.344,-21.836 -13.465,-13.468 -21.832,-32.011 -21.832,-52.343 V 189.375 c 0,-20.34 8.367,-38.879 21.832,-52.344 13.473,-13.465 32.008,-21.836 52.344,-21.836 h 0.004 c 20.34,0 38.875,8.371 52.34,21.836 13.472,13.465 21.836,32.004 21.836,52.344 v 409.348 c 0,20.332 -8.364,38.875 -21.836,52.343 -13.465,13.465 -32,21.836 -52.34,21.836"
         style="fill:#fff;fill-opacity:1;fill-rule:nonzero;stroke:none"
         id="path16" />
      <path
         d="m 1873.38,2131.78 1772.75,-561.74 0.07,0.01 c 30.33,-9.61 47.12,-41.99 37.51,-72.31 -6.04,-19.08 -21.1,-32.79 -38.98,-37.95 l -602.84,-213.54 0.04,-0.1 c -29.99,-10.62 -62.91,5.08 -73.53,35.06 -1.44,4.06 -2.39,8.18 -2.9,12.28 -13.41,51.63 -125.99,103.91 -300.95,147.31 -195.51,48.51 -461.42,78.3 -755.26,78.3 -297.54,0 -566.61,-30.6 -762.96,-80.28 -177.189,-44.84 -288.603,-98.34 -294.119,-150.13 l 0.129,-0.02 c -3.363,-31.63 -31.742,-54.54 -63.375,-51.18 -6.317,0.67 -12.285,2.35 -17.77,4.84 l -600.984,218.8 -0.133,-0.12 c -29.89,10.88 -45.301,43.94 -34.418,73.83 6.793,18.66 22.223,31.68 40.129,36.18 l 1660.021,560.85 -0.06,0.17 c 12.72,4.3 25.89,3.9 37.63,-0.26 z M 3447.91,1512.07 1854.52,2016.97 363.215,1513.12 763.891,1367.24 c 52.254,75.47 178.531,138.64 354.539,183.18 205.16,51.91 484.18,83.88 790.86,83.88 302.48,0 578.21,-31.16 782.71,-81.9 176.9,-43.89 304.87,-106.26 359.61,-180.71 l 396.3,140.38"
         style="fill:#fff;fill-opacity:1;fill-rule:nonzero;stroke:none"
         id="path18" />
      <path
         d="m 2966.39,644.863 c -20.49,40.293 -68.01,76.114 -132.43,108.86 -201.36,102.343 -562.06,153.523 -924.67,153.523 -362.61,0 -723.31,-51.18 -924.665,-153.523 C 920.203,720.988 872.68,685.156 852.203,644.863 l -100.812,50.852 c 32.285,63.523 95.547,116.933 181.484,160.613 217.885,110.742 598.105,166.112 976.415,166.112 378.31,0 758.54,-55.37 976.43,-166.12 85.94,-43.672 149.19,-97.082 181.48,-160.605 l -100.81,-50.852"
         style="fill:#fff;fill-opacity:1;fill-rule:nonzero;stroke:none"
         id="path20" />
    </g>
  </g>
</svg>
