<?xml version="1.0" encoding="UTF-8" standalone="no"?>
<!-- Created with Inkscape (http://www.inkscape.org/) -->

<svg
   version="1.1"
   id="svg2"
   width="2668"
   height="2668"
   viewBox="0 0 2668 2668"
   sodipodi:docname="vecteezy_tree-icon-vector-illustration_.eps"
   xmlns:inkscape="http://www.inkscape.org/namespaces/inkscape"
   xmlns:sodipodi="http://sodipodi.sourceforge.net/DTD/sodipodi-0.dtd"
   xmlns="http://www.w3.org/2000/svg"
   xmlns:svg="http://www.w3.org/2000/svg">
  <defs
     id="defs6" />
  <sodipodi:namedview
     id="namedview4"
     pagecolor="#ffffff"
     bordercolor="#000000"
     borderopacity="0.25"
     inkscape:showpageshadow="2"
     inkscape:pageopacity="0.0"
     inkscape:pagecheckerboard="0"
     inkscape:deskcolor="#d1d1d1" />
  <g
     id="g8"
     inkscape:groupmode="layer"
     inkscape:label="ink_ext_XXXXXX"
     transform="matrix(1.3333333,0,0,-1.3333333,0,2668)">
    <g
       id="g10"
       transform="scale(0.1)">
      <path
         d="m 3797.63,12898.1 c 35.24,2.3 71.67,3.5 109.2,3.8 5.43,-25.3 16.43,-51.7 28.57,-77.7 -35.38,24 -71.82,48 -111.21,64.3 -6.14,2.5 -12.29,4.9 -18.43,7 -2.72,1 -5.42,1.8 -8.13,2.6 z M 7059.11,8526.5 c 117.82,26.1 225.35,84.2 264.3,191.2 1,-0.4 2.01,-0.7 3.01,-1.1 26.29,-10.2 52.48,-20.6 78.61,-31.1 14.06,-5.7 28.11,-11.3 42.11,-17.1 35.98,-14.9 71.82,-30.1 107.41,-45.9 1.98,-0.8 3.99,-1.6 5.96,-2.5 42.17,-18.8 84.05,-38.2 125.58,-58.3 -208.17,-7 -415.55,-30.3 -623.76,-40.7 -1.11,1.8 -2.09,3.7 -3.22,5.5 z M 7674.65,9622 c -3.54,16.2 -7.72,32.3 -12.15,48.4 -6.44,26.8 -13.06,53.6 -19.87,80.4 20.81,3.3 41.62,6.7 62.45,10.1 -8.22,-43.8 -14.29,-88 -14.66,-133.2 0,-8.7 -11.32,-11.8 -15.77,-5.7 z m -40.95,-665.1 c 3.6,-8.7 7.19,-17.3 10.84,-25.9 3.09,-7.3 6.1,-14.7 9.21,-22 0.48,-0.9 0.91,-1.9 1.38,-2.8 7.01,-16.4 13.98,-32.8 20.97,-49.2 -66.96,29.9 -130.87,67.2 -196.85,99.7 33.45,41 -29.97,120.3 -58.71,140.6 -20.74,14.7 -84.53,53.7 -160.17,92.2 90.24,33.2 194.46,68.8 276.02,128.3 14.95,-92.6 30.25,-186.9 62.51,-273.6 10.96,-29.4 22.77,-58.4 34.8,-87.3 z m 166.91,701.4 c 1.68,40.4 7.07,79.9 14.11,118.9 56.67,9.1 112.05,23.2 154.94,62.6 37.11,34.1 2.77,97.4 -24.52,124.5 -24.52,24.4 -51.23,44.8 -79.2,62.9 0.33,2.1 0.71,4.3 1.03,6.4 93.59,9.8 189.44,27.9 269.14,63.3 51.49,22.8 125.86,40.9 129.1,110.4 3.48,73 -41.65,144 -96.17,205.1 20.21,-5.6 40.7,-11.8 61.36,-18.3 75.98,-89.8 158.8,-173.8 253.02,-241.2 185.1,-132.6 405.74,-203.5 590.63,-335.8 99.44,-71 167.52,-150.2 210.42,-265.8 7.28,-19.7 14.17,-39.3 21.11,-59.1 17.75,-112.9 30.39,-226.1 37.39,-337.9 2.88,-12.4 5.47,-24.9 8.18,-37.4 -0.01,0.1 -0.02,0.2 -0.02,0.3 40.58,-184.6 64.6,-373.5 77.76,-558.8 11.41,-160.9 7.05,-320.9 -4.38,-480.7 5.85,-39.3 11.22,-78.9 15.24,-118.6 10.15,-98.8 15.84,-197.7 17.73,-296.7 -0.21,0.5 -0.53,1 -0.86,1.5 l 0.01,-0.1 c -13.91,22.4 -28.54,44.3 -44.23,65.4 -83.32,112.9 -186.67,204.3 -284.43,303.7 -227.75,231.5 -477.25,416.6 -746.72,596.5 -113.53,75.8 -234.31,147.8 -319.15,257.7 -85.66,110.8 -118.37,236.8 -154.23,370 -32.49,120.8 -112.46,276.6 -107.26,401.2 z m 1562.38,609.7 c -54.2,92.3 -128.44,168.1 -199.75,246.4 60.64,-25.5 129.05,-33.4 185.32,2.6 81.64,52.3 140.88,123.8 151.84,218.6 12.48,-10.2 25.07,-20.3 37.43,-30.4 54.74,-44.9 94.67,-87.4 165.09,-107.5 49.64,-14 91.19,30.5 78.72,79.2 -9.82,38.4 -22.2,74.9 -36.45,109.8 21.73,-28.9 47.4,-60.7 75.56,-89.2 6.15,-46 11.47,-92.8 15.99,-140.4 2.62,-27.8 4.94,-55.8 7.01,-84.2 0.43,-5.8 0.91,-11.7 1.3,-17.6 2.27,-33.2 4.23,-66.8 5.65,-101.1 1.77,-42.6 3.76,-84.9 5.68,-127.1 1.2,-26.5 2.28,-52.9 3.27,-79.3 0.41,-10.7 0.82,-21.3 1.18,-32 2.28,-69.8 3.12,-139.3 0.93,-208.8 -2.47,-79 -12.37,-52.7 -40.41,-165.3 -6.62,-26.7 -345.69,334.5 -458.36,526.3 z m -162.65,-309.1 0.14,-0.1 c 0.86,-2.9 1.82,-5.7 2.68,-8.6 -113.27,72.7 -242.5,116.1 -356.37,188.1 -90.23,57 -176.34,117.1 -256.99,185.4 14.32,1.2 28.62,2.9 42.86,5.7 122.12,24.6 103.61,127.9 61.57,217.9 44.98,-42.5 92.01,-82.3 145.02,-113.4 66.5,-39.2 140.05,-57.4 190.5,-32.4 9.83,-16.6 19.18,-33.6 27.36,-51.9 14.15,-31.7 27.78,-63.8 40.91,-96.3 3.17,-7.8 6.06,-15.9 9.18,-23.9 9.52,-24.1 19,-48.3 27.97,-72.8 23.64,-64.8 45.36,-130.8 65.17,-197.7 z m 1252.56,-146.4 c 1.4,12.6 3.2,25.1 5.4,37.5 0.8,4.7 1.8,9.3 2.7,13.9 1.5,7.9 2.9,15.8 4.7,23.6 0.7,3.3 1.5,6.5 2.2,9.7 15.8,68.9 37.3,136.9 46.5,207.2 0,0.1 0.1,0.3 0.1,0.5 0,-0.1 0,-0.1 0,-0.1 0.4,3 0.9,5.9 1.3,8.9 22.9,202.4 -121.9,225.7 -82.7,425.6 -1,1.7 -1.5,3.8 -1,6.3 4.8,22.4 9.7,44.9 14.7,67.3 4.2,18.6 8.5,37.1 12.8,55.7 0.9,3.8 1.8,7.7 2.7,11.5 2.5,10.6 5.1,21.2 7.7,31.8 22.1,-34.3 45.7,-67.8 71.4,-99.4 43.4,-53.3 110.1,-143.7 186.4,-149 177.1,-12.4 120,263.4 98.9,367.4 -11.1,54.7 -16.5,116.6 -26.6,176.9 41.4,-56.8 104.8,-97.9 175.1,-104 8.4,-59.2 19.2,-117.6 30.1,-172.4 20.9,-104 62,-252.9 184.6,-276.4 85.3,-16.3 149.8,48.1 196,134.1 7.5,-25.8 14.9,-50.3 21.8,-73.3 -3.3,-2.8 -6.5,-5.6 -9.7,-8.4 0.1,0.1 0.3,0.4 0.3,0.4 -48.9,-42.1 -97.5,-84.4 -146,-127 -15.3,-13.4 -30.5,-27 -45.7,-40.5 -40.4,-35.6 -80.5,-71.6 -120.4,-107.7 -16.6,-15.1 -33.3,-30.2 -49.8,-45.4 -53.6,-49.1 -106.8,-98.6 -159.2,-148.9 -118,-113.2 -73,-49.6 -182.4,-170.9 -74.2,-82.3 -156.1,-156.9 -227.2,-242.1 0,0 0,0.1 0.1,0.2 -1.6,-1.7 -3.1,-3.5 -4.5,-5.3 -5.3,57.4 -16.8,131.2 -10.3,192.3 z m 133.7,-2690.6 c 6.9,133.9 7.6,133.8 14.5,267.7 -2,15.4 -3.2,30.8 -3,46.5 0.1,13.4 1.5,26.8 4.1,40.2 2.1,10.9 5.1,21.7 8.6,32.5 0.4,1.3 0.8,2.7 1.3,4 3.5,10.3 7.5,20.5 12.1,30.6 0.7,1.6 1.4,3.3 2.2,4.9 4.6,10 9.6,19.9 15,29.7 0.8,1.4 1.6,2.8 2.4,4.2 5.5,9.9 11.3,19.7 17.4,29.4 0.2,0.4 0.5,0.9 0.8,1.3 5.9,9.4 12.1,18.6 18.3,27.7 1.4,2.1 2.8,4.2 4.2,6.2 5.7,8.3 11.5,16.4 17.2,24.3 2.9,4 5.8,8 8.6,11.9 0.8,1.2 1.6,2.3 2.5,3.4 11.6,16 23,31.5 33.5,46.3 71.9,101.4 163.9,191.6 265.3,269.4 99.6,92.3 209.2,173.1 325.6,239.4 74.6,64.1 155.5,118.5 244.4,161.2 23,11.1 46.4,21.4 70,31.2 -18.2,-53.7 -53.5,-136.3 -118.5,-263.5 -202.6,-396.8 -33.8,-219.6 -211,-430.6 -177.3,-211.1 -281.6,-352.3 -374.5,-428.3 -68.4,-56 -259.7,-132.7 -361,-189.6 z m 1127.2,1754.4 c -27.4,-34.9 -57.3,-68.2 -88.1,-100.6 0,0 0,0 0,0.1 -29,-30.8 -58.9,-60.8 -88.1,-90.9 -10.9,-11.3 -21.4,-22.8 -32.1,-34.4 -27.6,-14 -55,-28.3 -82.3,-43 -25,-13.4 -49.9,-27.1 -74.5,-41.4 -138.8,-80.8 -270.8,-173.5 -393.6,-277.2 -8.6,-7.3 -16.8,-15.3 -24.8,-23.5 -2.1,-2.1 -4.1,-4.2 -6.1,-6.4 -7.4,-8 -14.7,-16.1 -21.7,-24.6 -2.3,-2.8 -4.5,-5.7 -6.7,-8.5 -4.6,-5.7 -9.1,-11.4 -13.5,-17.3 -42.3,-55.5 -81.3,-116.4 -133.2,-159 v -0.1 c -23.7,-19.4 -78,20.1 -108.6,10.8 -44.6,188.2 5.8,411.1 4,613.3 -1.9,235.1 34.7,342.2 145.4,558 149.1,290.5 343.4,508.9 595.1,705.1 31.8,24.7 107.1,82.3 195.7,146.9 17.6,-23 36.8,-44.4 58.6,-63 48.2,-41.3 136,-106.9 199,-52.7 44.1,37.9 49.9,107.9 52.2,162.3 2.3,54 9.7,112.7 14,171.7 1.5,0.9 3,1.8 4.5,2.6 31.6,-28.9 71.2,-42.5 104.7,-9.9 14.8,14.3 29.1,29.9 43.2,46.2 -8.6,-136.2 34.1,-273.2 158.9,-350.1 4,-2.5 7.9,-4.5 12,-6.8 -1.5,-16.2 -2.5,-32.4 -3.7,-48.7 -51.3,-79.8 -90.5,-169.7 -131.9,-252.1 -89,-176.9 -176.8,-350.7 -249.7,-534.8 -35,-88.3 -69.7,-196.5 -128.7,-272 z m 257.7,-6.2 c 45.5,116.1 81.7,234.1 111.8,355.4 1.2,3.3 2.3,6.5 3.4,9.8 48,135.6 80.8,279.1 142.2,409.7 19,-81.7 61.9,-155.2 149,-182.9 97,-31 196.2,-31.4 295.1,-13.6 1.7,-0.8 3.4,-1.5 5,-2.3 0.2,-3.8 0.6,-7.6 1.3,-11.2 0.4,-2.4 0.9,-4.6 1.3,-6.7 -16.6,-29 -31.6,-58.6 -41,-89.7 -8.9,-29.7 0,-59.2 17.4,-83.7 -36.3,-26 -73.6,-51.3 -111.6,-75.5 -2,-1.3 -4,-2.6 -6,-3.9 -13.3,-8.4 -26.8,-16.8 -40.2,-25.1 -2,-1.2 -3.9,-2.4 -5.9,-3.6 -29.9,-18.3 -60,-36 -90,-53.1 -3.6,-2.1 -7.3,-4.2 -10.9,-6.3 -11.1,-6.3 -22.2,-12.5 -33.3,-18.7 -4.2,-2.3 -8.4,-4.7 -12.7,-7 -12.1,-6.7 -24.1,-13.3 -36.1,-19.8 -2.4,-1.3 -4.8,-2.6 -7.2,-3.9 -13.6,-7.3 -27,-14.4 -40.4,-21.5 -5.8,-3 -11.5,-6 -17.2,-9 -8,-4.2 -15.9,-8.3 -23.8,-12.4 -6.2,-3.3 -12.5,-6.5 -18.7,-9.7 -7.6,-3.9 -15,-7.7 -22.5,-11.5 -50.8,-26 -99.1,-49.9 -142.9,-71.8 -22,-11 -44,-21.6 -66.1,-32 z m -8923.74,2668.5 c -38.31,-14.7 -74.77,-33.2 -107.55,-58.3 -90.04,-68.9 -87.11,-181.8 0.24,-255.9 48.38,-41 103.28,-70.3 161.56,-90.9 -51.87,-17.7 -102.01,-40.8 -149.2,-69.9 -27.45,-17 -35.05,-49.7 -19.09,-79.1 80.4,-149.1 206.58,-279.9 348.83,-374.6 -71.29,-6.2 -138.66,-22.4 -195.86,-49.1 -37.96,-17.7 -23.22,-61.6 -7.36,-89.2 78.54,-136.8 189.44,-260.7 318.23,-351.8 -78.33,-26.7 -150.92,-63 -176.64,-80.9 -162.85,-112.6 -388.98,-422.3 -138.34,-565.3 145.4,-83.1 332.24,-93.6 500.52,-82.6 -9.87,-44.9 -19.42,-90.1 -30.82,-134.8 -33.41,-130.7 -109.04,-331.2 17.69,-438.7 141.26,-119.9 337.67,-86.2 480.45,14.9 40.15,28.6 75.84,63.3 106.22,102.2 5.74,-23 12.26,-46.2 21.48,-67.6 33.31,-77.1 96.89,-150.2 181.2,-170.6 84.87,-20.6 153.68,20.7 207.68,82.1 17.23,-9.4 35.15,-17.9 53.5,-25.6 27.39,-79.1 79.5,-140.9 183.79,-131.5 60.73,5.5 119.72,32.4 173.24,70.7 7.26,0.1 14.51,0 21.74,0.2 27.87,-87.3 80.61,-166.8 152.87,-226.8 -11.5,-112.7 0.44,-234.3 104.71,-299.1 98.9,-61.2 204.8,-6.9 269.14,78.3 0.76,-13.4 1.89,-26.8 3.21,-40.1 0.31,-3.1 0.62,-6.2 0.97,-9.3 1.47,-13.3 3.25,-26.6 5.46,-39.7 0.29,-1.7 0.64,-3.3 0.95,-5 2.2,-12.5 4.8,-24.9 7.79,-37.1 0.44,-1.8 0.83,-3.6 1.28,-5.4 3.32,-12.9 7.18,-25.7 11.54,-38.2 0.35,-1 0.56,-2.1 0.91,-3.1 0.05,0.1 0.13,0.2 0.13,0.2 5.16,-14.6 10.89,-28.9 17.66,-42.9 21.16,-43.5 96.03,-122.3 152.83,-87.4 68.62,42.2 123.37,109.5 162.06,186.3 l 0.05,-0.2 c 24.46,-121.6 116.52,-351 283.73,-272 112.4,53.2 149.78,219.6 165.51,341.3 103.19,-93.5 214.83,-221.6 367.65,-206.9 44.17,4.4 58.28,39.9 53.5,79.6 -7.31,62.5 -28.26,126.6 -53.81,189.1 129.28,-67.3 265.33,-124 408.98,-129.7 29.63,-1.2 58.01,28 57.08,57.4 -1.43,48.4 -10.67,99.3 -25.76,150.3 75.3,1.3 150.49,4.6 224.82,13.5 134.1,16.2 267.24,37.6 400.79,56.9 45.44,6.5 89.55,7 132.93,4.1 9.88,-0.7 19.82,-1.1 29.62,-2.1 17.45,-1.9 34.78,-4.4 52.02,-7.3 59.84,-36.4 118.65,-74.4 176.8,-114 64.02,-43.6 132.05,-87.2 185.38,-144.4 222.16,-149.8 445.13,-326.4 697.07,-607.6 144.58,-161.3 282.37,-332.4 375.68,-529.3 7.92,-404.7 -20.41,-812 -52.62,-1213 -36.07,-449.6 -90.21,-897.3 -94.77,-1348.6 -2.39,-238.4 -7.01,-481 -59.91,-714.6 -17.19,-76.2 -41.92,-154.9 -78,-226.6 -9.27,-39.7 -22.9,-78.2 -43.67,-114.7 -92.66,-163 -268.81,-273.6 -435.53,-348.4 -45.11,-20.3 -90.57,-41.5 -136.35,-62.9 -681.24,-252.4 -1420.87,-328 -1615.41,-374.7 -211.07,-50.6 -599.43,-84.4 -658.53,-143.5 -59.09,-59.1 -236.39,-202.6 -59.09,-211.1 177.29,-8.4 337.7,0 557.21,0 219.5,0 598.64,69.3 640.85,111.5 42.21,42.2 201.6,-4.8 201.6,-4.8 l 230.4,9.6 c 63.11,-0.1 114.32,-4 177.6,-4.8 75.03,-1 26.4,31.2 113.43,42.2 -102.28,-65.4 -38.39,-111.7 -38.39,-111.7 0,0 337.71,0.2 439.01,0 47.53,-0.1 126.11,48.3 196.14,99.7 62.36,-6.6 124.9,-9.1 187.03,-2.8 60.42,6.2 120.93,13.6 177.57,36.7 8.19,3.3 16.21,7 24.21,10.6 0,0 0.01,0 0.02,0 16.56,7.5 32.97,15.3 49.34,23.1 -8.74,-23.3 -16.29,-47 -20.8,-71.8 -3.52,-19.7 21.5,-45.3 40.01,-46.6 39.38,-3 80.98,-5.3 121.79,-2.4 2.43,0.2 4.84,0.5 7.26,0.7 8.76,0.8 17.46,1.8 26.1,3.2 3.2,0.5 6.39,1 9.56,1.6 8.19,1.6 16.25,3.5 24.25,5.6 2.96,0.8 5.96,1.5 8.88,2.4 10.65,3.3 21.14,7 31.3,11.7 46.16,21.4 184.83,129.4 229.43,80.9 4.55,-4.9 9.17,-9.4 13.85,-13.7 1.77,-1.6 3.58,-3.1 5.37,-4.6 2.96,-2.5 5.93,-5 8.94,-7.3 2.08,-1.6 4.18,-3.1 6.28,-4.5 2.83,-2 5.68,-3.9 8.55,-5.8 2.15,-1.3 4.31,-2.7 6.49,-4 3.01,-1.7 6.07,-3.4 9.13,-5 2.01,-1 4.01,-2.1 6.04,-3.1 4.19,-2.1 8.42,-3.9 12.68,-5.7 0.91,-0.4 1.8,-0.9 2.71,-1.2 5.26,-2.2 10.59,-4.1 15.97,-6 1.51,-0.5 3.06,-1 4.59,-1.5 4.14,-1.4 8.31,-2.7 12.51,-4 1.36,-0.4 2.73,-0.8 4.1,-1.1 4.96,-1.5 9.95,-2.8 14.99,-4.2 0.11,0 0.33,-0.1 0.33,-0.1 h -0.01 c 32.62,-8.5 66.94,-15.4 102.66,-27.8 14.5,-5 29,-9.8 43.5,-14.5 3.41,-1.1 6.84,-2.1 10.26,-3.2 75.79,-23.6 152.12,-40 232.92,-34 32.6,2.4 24.9,37.9 11.2,58 l 0.2,-0.1 c -0.1,0.2 -0.5,0.6 -0.5,0.6 -2,2.9 -4.2,5.6 -6.4,7.7 -7,6.6 -14.2,13 -21.4,19.4 0.1,-0.1 0.4,-0.4 0.4,-0.4 -3.8,3.5 -7.6,6.9 -11.5,10.4 -12.6,11.2 -25.1,22.4 -36.6,34.4 37,-9.3 74.2,-17.9 111.6,-25.9 0.7,-0.2 1.3,-0.3 2,-0.5 122.8,-26.2 247.1,-44.8 372.6,-53.4 170,-11.9 332.5,25.6 501,38.7 88.2,6.9 176.2,-4.2 263.7,-20.5 5.8,-1.1 11.5,-2.1 17.2,-3.2 14.4,-2.8 128.7,-5.7 143,-8.6 55.8,-11.5 111.4,-23.9 166.8,-34 2.5,-0.5 4.9,-0.9 7.3,-1.3 15,-2.7 30,-5.2 44.9,-7.5 2.7,-0.4 5.3,-0.8 7.9,-1.2 17.2,-2.5 34.3,-4.7 51.4,-6.4 1,-0.1 2,-0.1 3.1,-0.2 15.3,-1.5 30.6,-2.6 45.9,-3.3 3.9,-0.2 7.8,-0.4 11.6,-0.5 14.5,-0.5 29,-0.6 43.4,-0.2 2.3,0.1 4.5,0 6.7,0.1 16.4,0.6 32.8,1.8 49.2,3.6 3.5,0.4 7.1,1 10.6,1.5 13,1.7 26,3.8 39,6.5 4.4,0.9 8.8,1.7 13.2,2.7 16.3,3.7 32.5,7.9 48.8,13.3 15.1,0.2 30.2,1 45.2,2.8 10.6,1.4 10.6,9.4 6.6,17.1 2.3,1.2 4.2,2.4 5.8,3.8 0.6,0.4 1,0.9 1.4,1.4 1,0.9 1.9,1.9 2.6,2.9 0.4,0.6 0.8,1.2 1.1,1.8 0.5,1 1,1.9 1.3,3 0.2,0.6 0.4,1.3 0.6,2 0.2,1 0.3,2.1 0.3,3.1 0.1,0.8 0.1,1.5 0,2.3 0,1 -0.2,2 -0.4,3 -0.1,0.9 -0.2,1.7 -0.5,2.6 -0.2,0.8 -0.5,1.6 -0.8,2.5 -0.1,0.2 -0.3,0.5 -0.4,0.8 105.9,-12.6 168.5,-24 255.3,13.4 53.8,23.1 92.3,47.8 119.3,69.6 61.5,-20.4 129.2,-39 201.7,-51.9 278.6,-49.4 329.3,15.7 455.9,2.4 126.6,-13.2 278.6,30.2 371.5,72.4 92.8,42.2 -126.7,84.4 -413.7,126.6 -287.1,42.2 -497.8,94.3 -810.5,177.3 -158.9,42.2 -506.6,59.1 -506.6,59.1 h -453.4 c -122.3,48.4 -236.6,114.3 -337.7,209.2 -161.1,151 -215.5,346.3 -235,560.7 -22,238.3 -51.1,473.5 -99.3,707.9 -105.9,514.4 -32.5,1038.7 -82.6,1558 -22.1,230.2 -50.6,495.6 -4.2,734.5 0.6,25.6 1.4,51.3 2.2,77 136.4,87.6 306.9,139.5 426.2,196.7 211,101.4 329.3,329.3 489.7,667 151.8,319.6 299,710.6 388.4,971.9 12.2,4.6 24.4,9.3 36.6,14 146.5,57 287.9,124.1 426.3,197.2 111,80.8 257.1,175.2 398.8,267.4 81.9,53.3 162.1,105.8 233.3,154.6 -2,-3 -4.2,-6.1 -6.2,-9.2 -70.1,-109.2 -150.1,-245.2 -34,-354.6 91.7,-86.6 222.8,-61.2 329.1,-18.8 11.4,4.5 24.4,9.9 38.1,15.8 12.2,-43.6 25.4,-82.1 37.5,-111.3 80,-193.9 242.4,-479.5 473.5,-515 162.2,-24.9 216,134.7 221.2,326.9 72.1,-69.5 155.3,-124.6 250.7,-150.7 58.7,-16 101.3,-10.6 131.2,9.7 30.4,6.3 49,34.9 47.1,67.6 3.5,10.2 6.3,21.1 8.3,32.6 0.3,-0.2 0.4,-0.5 0.6,-0.8 59.7,-87.5 130.3,-168.9 207.4,-241.4 48.9,-45.9 137.3,-123.6 211.9,-85.7 136.3,68.9 214,324.5 223.6,466.7 3.3,48.6 2.3,96.7 -3.8,143.4 42.1,-6.3 84.2,-10.4 124.9,-12 209.1,-8 434.7,18.5 609.6,142.4 17.2,12.2 10.8,42.4 4.5,57.9 -42.4,103.5 -148,171 -239.5,226.5 -22.4,13.6 -44.7,28 -67.5,41.9 54.5,28.9 100.1,64.1 106.8,113.3 7.3,-3.4 14.3,-7.4 21.6,-10.6 100.1,-43.9 203.1,-100.6 308.5,-128.9 21,-5.7 45.4,7.6 45.6,31.1 1,117.9 -41.1,221.7 -87.9,324.6 66.6,-43.2 122.1,-93.6 209.4,-96.7 20.4,-0.7 33.4,17.7 35.5,35.8 4,33.9 3.5,68 1,102.2 13.5,-10.2 27.6,-19.9 42.2,-29 109.5,-67.6 267.8,-116.5 310.7,46.6 40.7,154.5 43,338.5 25.9,496.3 -3.5,32.8 -8.2,65.4 -14.2,97.4 108.2,-49.9 239.3,-133.2 351.8,-110.7 18.2,3.6 37.6,14.4 36.4,36.5 -7.5,146.9 -52.6,279.9 -120.1,402.3 2.5,-0.3 5.1,-0.7 7.7,-1 l -0.1,0.1 c 42.2,-6.2 85,-6.3 128.6,5.1 22.4,5.9 25.5,34.4 22.8,52.6 -10.8,74.4 -43.5,135.4 -85.3,190.8 126.2,-13.3 261.6,-19.6 380.5,24.3 20.2,7.5 27.2,32.5 22.3,51.7 -45.4,182.6 -190.6,325.1 -326.9,446.1 -35,31.1 -70.3,61.2 -106.3,89.5 96.1,47.9 184.3,119.8 260.8,187.9 22,19.6 2.3,60 -14.8,75.1 -120.4,106.8 -279.4,169.8 -442.1,200.2 13.1,22.8 22.9,49.5 30.1,64.6 43.1,88.9 27,199.5 27.2,295.3 0,37.8 -57.6,103.7 -96.1,66.6 -34.6,-33.4 -70.2,-65.9 -107.1,-96.7 11.8,96.2 13.5,188.7 -75.7,252 -84.4,59.9 -164.7,19.7 -229.1,-57.4 -4.2,59.9 -25.7,122.3 -43.4,169.7 -12,31.7 -26.1,64.7 -42.1,97.3 120.5,1.5 238.5,5.6 341.7,-5.1 52.2,-5.4 82.5,23 75.9,76.4 -18.1,145 -153.9,276.2 -278.3,367 0.6,0.5 1.3,1 1.7,1.6 43.9,38.9 84.4,81.3 122.1,124.6 80.8,93.2 163.6,185.4 58.9,295.6 -68.8,72.7 -221.6,116.8 -316.8,132.2 -6.2,1 -12.9,2 -19.9,3.1 30.9,36.2 60.9,73.2 87.5,112.9 36.5,54.5 62.8,114 77.2,175.7 27.6,44.8 53.1,90.8 75.3,138 58,123.8 96.4,287.8 -36.4,380.2 -84.3,58.8 -211.4,68.6 -311.1,66.1 -51.6,-1.2 -104.3,-5.1 -155,-16.7 0.1,8.3 0,16.7 0.1,24.8 1.7,139.7 24.8,285 -13.7,421.6 -11.7,41.1 -58.9,104.3 -110,92.7 -99.2,-22.5 -261.9,-129.4 -327,-250.2 -5.1,78.8 -14.3,157.5 -27.5,235.1 -8.9,52.1 -62.4,96.3 -114.2,96.2 -57.4,-0.1 -113,-15.2 -168.3,-32.4 33.1,63.2 63.9,128 87.7,195.1 26.2,74 -57,144.4 -123.5,147.4 -51,2.4 -134.2,-2.1 -209.9,-22.2 44.7,145.2 31.7,341.7 -8.2,429.3 -18.5,40.7 -66.6,80.8 -113.6,65 -55.6,-18.9 -108.2,-45.1 -156.8,-77.6 -17.7,46.3 -38.2,89.6 -56.1,126 -43,87.9 -107.6,295.5 -238.1,285.4 -64,-5.1 -109.2,-59.4 -148.9,-104.7 -50,-57.3 -97,-116.8 -135.9,-182.3 -36.1,-60.7 -67,-123.6 -91.2,-188.6 -27,72.2 -58.8,139.3 -83.8,191.6 -42.8,89.6 -78.5,184.2 -125.2,272.4 -19.5,69.5 -57.7,132.2 -119.8,181.7 -139.7,111.3 -316.4,115.5 -477.5,57.3 27.4,124.5 15.5,246.4 -78.4,323.7 -80.9,66.7 -164.5,70.4 -242.3,39.2 32.6,145.2 26.1,289.3 -77.4,386.7 -119.6,112.2 -248.7,75.4 -350.5,-12.7 0.2,183.2 -22.8,371.4 -209.2,416.5 -166.4,40.2 -270.7,-97.2 -327.7,-262.1 -4.3,9.4 -8.5,19 -13,28.3 -59.2,121.2 -153.9,278.4 -300.7,301.9 -237.1,38.1 -295,-171.9 -279.7,-381.8 -158.4,9.9 -250,-135.5 -320.6,-282.6 -65.9,124.9 -161.9,219.9 -329.2,161.7 -52.3,-18.3 -94.4,-58.6 -128.9,-105.7 -4.8,-4.6 -9.5,-9.3 -14.2,-14.2 -4.2,51.7 -9.7,103.2 -16.7,154.2 -25.1,181 -60.4,432 -227.1,542.4 -188.78,124.9 -383.06,13.7 -456.09,-180.9 -23.68,-63.3 -42.96,-132.4 -56.24,-203.5 -60.71,58.4 -135.86,97.4 -224.83,101.5 -244.67,11.1 -321.15,-197.9 -268.98,-388.3 -217.2,53.7 -488.89,63.6 -593.05,-102.3 -122.08,123.5 -289.17,213.3 -447.09,176.2 -117.29,-27.5 -198.77,-121.6 -195.57,-245.6 1.41,-51.7 11.87,-102.1 22.18,-152.5 -22.17,19.3 -44.21,38.8 -66.31,58.2 -11.94,15.9 -26.5,29.2 -44.46,38.4 -44.22,37.5 -89.57,73.5 -138.46,104.7 -140.35,89.8 -343.13,171.5 -490.42,48.6 -43.29,-36.1 -77.06,-80.8 -102.49,-130.6 -23.77,43.3 -54.33,88.5 -96.66,103.5 -81.01,28.6 -162.49,-50.8 -208.71,-106.8 -105.09,-127.2 -156.94,-287 -227.04,-433.8 -26.48,-55.6 -60.28,-126.7 -88.81,-203.4 -25.81,69.1 -58.38,135.8 -96.72,200.1 -41.46,69.5 -91.15,132.7 -144.26,193.4 -42.04,48 -90.06,105.5 -157.81,110.9 -138.55,10.8 -206.98,-209.3 -252.6,-302.5 -18.99,-38.6 -40.74,-84.7 -59.52,-133.6 -51.53,34.3 -107.36,62.1 -166.32,82.1 -49.75,16.8 -100.97,-25.8 -120.5,-68.9 -42.27,-92.9 -56.03,-301.3 -8.56,-455.3 -80.3,21.4 -168.51,26.2 -222.66,23.6 -70.57,-3.2 -158.79,-77.8 -131.02,-156.3 25.3,-71.2 57.95,-139.9 93.1,-206.9 -58.69,18.2 -117.72,34.2 -178.48,34.3 -55.01,0 -111.86,-46.8 -121.2,-101.9 -13.88,-82.5 -23.87,-165.8 -29.3,-249.5 -69,128.1 -241.41,241.5 -346.54,265.4 -54.26,12.2 -104.6,-54.8 -116.75,-98.3 -40.8,-145 -16.28,-299 -14.55,-447.2 0,-8.6 0,-17.5 0,-26.3 -53.71,12.2 -109.58,16.5 -164.26,17.8 -105.69,2.6 -240.55,-7.9 -329.95,-70.2 -140.95,-97.9 -100.16,-271.9 -38.52,-403.3 23.42,-50.1 50.55,-98.7 79.85,-146.2 15.2,-65.5 42.97,-128.7 81.81,-186.4 28.22,-42.1 59.99,-81.3 92.66,-119.7 -7.37,-1.1 -14.43,-2.3 -21.05,-3.4 -100.9,-16.2 -263.01,-63.1 -336.04,-140.1 -110.99,-116.9 -23.1,-214.6 62.63,-313.5 39.7,-45.8 82.89,-91 129.32,-132.1 0.65,-0.7 1.3,-1.3 1.85,-1.9 -131.84,-96.2 -275.92,-235.3 -295.13,-389.1 -4.13,-33.2 5.48,-56.9 25.02,-70 l -0.17,-0.1 c -5.15,-1.4 -10.18,-3 -15.08,-5.1 -6.47,4.2 -13.09,8.3 -19.78,12.1 -1.3,0.8 -2.57,1.6 -3.87,2.3 -6.6,3.7 -13.27,7.2 -19.98,10.5 -1.11,0.5 -2.21,1 -3.32,1.5 -14.06,6.7 -28.23,12 -42.2,15.5 -0.74,0.2 -1.48,0.5 -2.21,0.7 l -0.07,-0.1 c -2.65,0.7 -5.28,1.3 -7.9,1.8 h 0.04 c -0.89,0.2 -1.77,0.2 -2.66,0.4 -3.44,0.6 -6.86,1.1 -10.26,1.5 -1.53,0.1 -3.04,0.2 -4.56,0.3 -3.13,0.2 -6.21,0.3 -9.27,0.3 -1.62,0 -3.22,-0.1 -4.83,-0.2 -2.92,-0.2 -5.79,-0.4 -8.64,-0.8 -1.65,-0.3 -3.29,-0.5 -4.91,-0.8 -2.75,-0.6 -5.45,-1.3 -8.12,-2.1 -1.62,-0.4 -3.22,-0.9 -4.81,-1.5 -2.62,-0.9 -5.18,-2 -7.72,-3.2 -1.52,-0.8 -3.06,-1.4 -4.56,-2.3 -2.53,-1.4 -4.97,-3 -7.4,-4.7 -1.39,-1 -2.8,-1.8 -4.15,-2.9 -2.54,-2 -4.96,-4.4 -7.37,-6.7 -1.11,-1.1 -2.27,-2 -3.35,-3.2 -3.42,-3.7 -6.7,-7.7 -9.81,-12.2 -60.11,-87.4 -5.2,-232.3 25.61,-320.8 18.23,-52.7 39.49,-103.9 61.2,-155 -176.86,48.2 -412.64,68 -464.61,-128.6 -31.03,-116.8 8.25,-206.2 77.36,-280 -143.54,21.3 -293.5,-1.2 -427.71,-56 -31.91,-13 -28.97,-50.6 -18.77,-76.9 57.5,-149.2 176.19,-275 316.07,-350.8"
         style="fill:#fff;fill-opacity:1;fill-rule:nonzero;stroke:none"
         id="path16" />
    </g>
  </g>
</svg>
